<svg xmlns="http://www.w3.org/2000/svg" xmlns:xlink="http://www.w3.org/1999/xlink" width="380" height="240" viewBox="0 0 380 240"><defs><style>.a{fill:#252a32;}.b{clip-path:url(#a);}.c{fill:url(#b);}.d{opacity:0.48;}.e,.g,.h,.i{fill:none;stroke:#fff;stroke-linecap:round;stroke-miterlimit:10;}.e{stroke-width:2px;stroke-dasharray:0 7;}.f{opacity:0.58;}.g{stroke-width:3px;stroke-dasharray:0 10;}.h{opacity:0.26;}.i{opacity:0.29;}.j{fill:#fff;}.k{fill:url(#c);}.l{fill:url(#d);}.m{fill:url(#e);}.n{fill:url(#f);}.o{fill:url(#g);}.p{fill:#003c8c;}</style><clipPath id="a"><rect class="a" width="380" height="240" transform="translate(-261 15462)"/></clipPath><linearGradient id="b" x1="0.5" y1="0.163" x2="0.5" y2="1" gradientUnits="objectBoundingBox"><stop offset="0" stop-color="#01449b"/><stop offset="1" stop-color="#0b1c33"/></linearGradient><linearGradient id="c" x1="0.228" y1="1.181" x2="0.775" y2="0.245" gradientUnits="objectBoundingBox"><stop offset="0" stop-color="#00bdff"/><stop offset="0.127" stop-color="#00a7ee"/><stop offset="0.385" stop-color="#0080d2"/><stop offset="0.52" stop-color="#0072c7"/><stop offset="0.753" stop-color="#0057ac"/><stop offset="1" stop-color="#00368d"/></linearGradient><linearGradient id="d" x1="0.14" y1="0.5" x2="1.14" y2="0.5" gradientUnits="objectBoundingBox"><stop offset="0" stop-color="#00befa"/><stop offset="0.159" stop-color="#00a6ee"/><stop offset="0.52" stop-color="#0076d5"/><stop offset="0.715" stop-color="#0060b9"/><stop offset="1" stop-color="#003c8c"/></linearGradient><linearGradient id="e" y1="0.5" x2="1" y2="0.5" gradientUnits="objectBoundingBox"><stop offset="0" stop-color="#0076d5"/><stop offset="1" stop-color="#003c8c"/></linearGradient><linearGradient id="f" x1="0.693" y1="-0.048" x2="0.357" y2="0.915" gradientUnits="objectBoundingBox"><stop offset="0" stop-color="#00befa"/><stop offset="0.214" stop-color="#00a3ec"/><stop offset="0.52" stop-color="#0076d5"/><stop offset="0.715" stop-color="#0060b9"/><stop offset="1" stop-color="#003c8c"/></linearGradient><linearGradient id="g" x1="0.465" y1="1.205" x2="0.556" y2="-0.163" gradientUnits="objectBoundingBox"><stop offset="0" stop-color="#0072c7"/><stop offset="1" stop-color="#003c8c"/></linearGradient></defs><g class="b" transform="translate(261 -15462)"><rect class="c" width="392" height="295" transform="translate(-268 15434)"/><g transform="translate(-207.436 15150.363)"><g class="d" transform="translate(172.413 0)"><path class="e" d="M2507.052,870.061c123.544,15.817,210.883,128.869,195.078,252.508s-128.77,211.046-252.313,195.229c-99.451-12.733-175.443-88.475-193.044-181.978a225.761,225.761,0,0,1-2.033-70.529C2270.544,941.652,2383.508,854.245,2507.052,870.061Z" transform="translate(-2252.89 -868.212)"/></g><g class="f" transform="translate(118.722 249.427)"><path class="g" d="M2294.529,1435.7a110.229,110.229,0,1,1-148.623,46.608A110.257,110.257,0,0,1,2294.529,1435.7Z" transform="translate(-2133.348 -1423.131)"/></g><path class="h" d="M2156.473,1950.761v.391h241.171v-.263l.26-.021a83.105,83.105,0,0,0,30.762-8.7,85.17,85.17,0,0,0,13.324-8.387,86.856,86.856,0,0,0,11.56-10.674,87.918,87.918,0,0,0,16.652-26.991,88.812,88.812,0,0,0,4.506-15.711,90.705,90.705,0,0,0-.165-34.422,88.3,88.3,0,0,0-12.827-31.294,87.693,87.693,0,0,0-10.413-12.957,86.447,86.447,0,0,0-12.623-10.693,84.667,84.667,0,0,0-14.491-8.075,83.268,83.268,0,0,0-16.015-5.1c-5.621-1.181-24.135-1.495-24.135-1.495H2156.558" transform="translate(-2027.364 -1368.162)"/><ellipse class="i" cx="108.691" cy="108.775" rx="108.691" ry="108.775" transform="translate(0 367.591)"/><g transform="translate(214.835 486.87)"><g transform="translate(0 0.032)"><ellipse class="j" cx="2.137" cy="2.138" rx="2.137" ry="2.138"/></g><ellipse class="j" cx="2" cy="2.002" rx="2" ry="2.002" transform="translate(0.073 0)"/></g></g><g transform="translate(-186.667 15565.038)"><g transform="translate(48.147)"><g transform="translate(0)"><path class="j" d="M179.832,379.345V370.8H176.3v1.626l-.336-.222a8.387,8.387,0,0,0-4.637-1.4,8.623,8.623,0,0,0,0,17.245,8.4,8.4,0,0,0,4.641-1.4l.336-.222v1.79a5.05,5.05,0,0,1-4.61,5.027l-.154.011v3.583l.175-.008a8.683,8.683,0,0,0,8.118-8.53v-8.712l.01,0Zm-3.529.007v.144a5.041,5.041,0,1,1,0-.144Z" transform="translate(-162.817 -363.916)"/><path class="j" d="M200.547,372.439l-.343-.228a8.394,8.394,0,0,0-4.634-1.4,8.618,8.618,0,0,0,0,17.235,8.39,8.39,0,0,0,4.637-1.4l.343-.228V388h3.52V370.809h-3.52Zm0,6.983a4.983,4.983,0,1,1-4.981-5.043A5.02,5.02,0,0,1,200.547,379.422Z" transform="translate(-168.844 -363.917)"/><path class="j" d="M221.283,368.53a8.386,8.386,0,0,0-4.649,1.408l-.344.228v-8.527h-3.513v24.1h3.513v-1.6l.344.228a8.407,8.407,0,0,0,10.652-1.114,8.7,8.7,0,0,0,.007-12.187A8.4,8.4,0,0,0,221.283,368.53Zm0,13.666a5.047,5.047,0,1,1,4.985-5.049A5.022,5.022,0,0,1,221.283,382.2Z" transform="translate(-175.235 -361.638)"/><rect class="j" width="3.52" height="17.191" transform="translate(56.218 6.891)"/><path class="j" d="M258.376,370.809v1.673l-.346-.232a8.382,8.382,0,0,0-4.7-1.436h-.111a8.619,8.619,0,0,0,.116,17.235h.111a8.393,8.393,0,0,0,4.581-1.441l.346-.233V388h3.519V370.809Zm-.06,8.546a5.023,5.023,0,0,1-4.912,5.115h-.072a4.921,4.921,0,0,1-3.474-1.429,5.058,5.058,0,0,1,3.4-8.66,5.1,5.1,0,0,1,3.553,1.428A5.046,5.046,0,0,1,258.315,379.355Z" transform="translate(-183.202 -363.917)"/><g transform="translate(81.702 19.639)"><ellipse class="j" cx="2.313" cy="2.313" rx="2.313" ry="2.313" transform="translate(0.168 0.168)"/><path class="j" d="M274.025,392.734a2.48,2.48,0,1,1,2.481-2.48A2.483,2.483,0,0,1,274.025,392.734Zm0-4.626a2.145,2.145,0,1,0,2.145,2.145A2.147,2.147,0,0,0,274.025,388.108Z" transform="translate(-271.545 -387.773)"/></g></g><g transform="translate(90.148)"><path class="j" d="M323.269,370.813a8.561,8.561,0,1,0,6.015,2.526A8.4,8.4,0,0,0,323.269,370.813Zm4.98,8.611a5.036,5.036,0,0,1-1.459,3.565,4.919,4.919,0,0,1-3.524,1.481,5.045,5.045,0,1,1,4.983-5.046Z" transform="translate(-290.812 -363.919)"/><rect class="j" width="3.52" height="24.751" transform="translate(18.726 0.102)"/><path class="j" d="M376.276,361.638v8.527l-.344-.227a8.4,8.4,0,0,0-10.66,1.118,8.7,8.7,0,0,0,.008,12.187,8.407,8.407,0,0,0,10.652,1.115l.345-.228v1.6h3.512v-24.1Zm-.008,15.512a4.986,4.986,0,1,1-4.985-5.047A5.022,5.022,0,0,1,376.268,377.15Z" transform="translate(-302.749 -361.638)"/><path class="j" d="M291.392,374.3a4.971,4.971,0,0,1,4.1,2.178l.05.074h3.9l-.083-.225a8.54,8.54,0,0,0-7.961-5.594,8.4,8.4,0,0,0-6.014,2.52,8.558,8.558,0,1,0,13.974,9.12l.083-.225h-3.91l-.05.073a4.939,4.939,0,0,1-7.613.691,5.058,5.058,0,0,1,3.524-8.612Z" transform="translate(-282.889 -363.899)"/><path class="j" d="M355.5,371.132H352v.168c0,1.679.005,8.189.005,8.263,0,1.913-1.2,4.185-3.206,4.674a5.429,5.429,0,0,1-1.911.117,3.262,3.262,0,0,1-1.643-.652,5.036,5.036,0,0,1-1.1-1.045,5.1,5.1,0,0,1-1.061-2.837c0-.084-.007-.169-.007-.254s0-6.587.005-8.266v-.168h-3.5v.168c0,1.67-.006,8.2-.006,8.266a8.711,8.711,0,0,0,2.232,5.758,8.536,8.536,0,0,0,2.47,1.9,6.963,6.963,0,0,0,3.224.791,7.334,7.334,0,0,0,3.52-.9,8.672,8.672,0,0,0,4.484-7.538c0-.071,0-6.6-.006-8.273Z" transform="translate(-296.98 -363.998)"/></g></g><g transform="translate(0 1.456)"><path class="k" d="M130.947,366.437a9.773,9.773,0,0,0-16.423,4.669l-.009.041.041,0a10.569,10.569,0,0,1,7.685,4.764l.011.017h11.208l.008-.028A9.806,9.806,0,0,0,130.947,366.437Z" transform="translate(-102.664 -363.575)"/><path class="l" d="M134.821,379.921h-1.7l-.008.028a9.691,9.691,0,0,1-9.355,7.159l-.145,0h-.033l0,.032a10.583,10.583,0,0,1-9.23,9.138l-.032,0-.935.15h21.442v-.014a8.262,8.262,0,0,0,0-16.5Z" transform="translate(-102.381 -367.638)"/><path class="m" d="M124.748,379.921l.038.057a10.568,10.568,0,0,1,1.71,5.772,10.847,10.847,0,0,1-.093,1.389l-.005.041h.188a9.767,9.767,0,0,0,9.427-7.214l.012-.047Z" transform="translate(-105.207 -367.638)"/><path class="n" d="M119.975,385.5a9.69,9.69,0,0,1-9.219-7.157,9.763,9.763,0,0,1-.08-4.763l.01-.041-.041,0a10.872,10.872,0,0,0-1.221-.071,10.681,10.681,0,1,0,1.252,21.285h0l.041-.005.032,0h0a10.658,10.658,0,0,0,9.262-9.2l.005-.041Z" transform="translate(-98.743 -366.033)"/><path class="o" d="M122.221,378.355a10.642,10.642,0,0,0-7.738-4.8l-.033,0-.008.032a9.842,9.842,0,0,0,.08,4.8l.008.028h7.728Z" transform="translate(-102.581 -366.055)"/><path class="p" d="M122.329,379.938l-.011-.017h-7.7l.012.047a9.765,9.765,0,0,0,9.289,7.213h.033l0-.033a10.852,10.852,0,0,0,.094-1.4A10.638,10.638,0,0,0,122.329,379.938Z" transform="translate(-102.689 -367.638)"/></g></g></g></svg>